<?xml version="1.0" standalone="no"?>
<!DOCTYPE svg PUBLIC "-//W3C//DTD SVG 20010904//EN"
 "http://www.w3.org/TR/2001/REC-SVG-20010904/DTD/svg10.dtd">
<svg version="1.0" xmlns="http://www.w3.org/2000/svg"
 width="1000.000000pt" height="1000.000000pt" viewBox="0 0 1000.000000 1000.000000"
 preserveAspectRatio="xMidYMid meet">
<metadata>
Created by potrace 1.14, written by Peter Selinger 2001-2017
</metadata>
<g transform="translate(0.000000,1000.000000) scale(0.100000,-0.100000)"
fill="#000000" stroke="none">
<path d="M2975 9750 c-246 -280 -194 -241 -468 -349 -108 -43 -136 -58 -176
-98 -27 -27 -133 -178 -236 -337 -146 -225 -184 -290 -174 -298 8 -5 26 -15
41 -23 27 -15 27 -15 12 -52 -9 -21 -28 -63 -44 -93 -50 -98 -225 -670 -216
-706 8 -32 50 -58 82 -51 l26 5 -7 -107 c-9 -158 -10 -403 -1 -711 9 -302 14
-326 66 -336 25 -5 28 -10 25 -33 -3 -14 -11 -80 -20 -146 l-15 -120 105 -328
c58 -181 105 -330 105 -333 0 -2 10 -8 23 -13 19 -7 32 -32 62 -117 21 -59 95
-218 164 -352 l126 -244 137 -120 c129 -113 138 -123 154 -177 19 -61 249
-713 290 -824 24 -61 45 -87 73 -87 7 0 11 26 11 67 0 36 2 64 4 62 3 -2 14
-60 25 -129 24 -145 149 -771 221 -1105 71 -328 240 -1153 240 -1169 0 -8 -37
-80 -82 -160 l-83 -146 -463 -310 -463 -311 -487 -236 c-268 -129 -494 -242
-502 -249 -12 -12 250 -14 1784 -14 l1798 0 -23 38 c-13 20 -73 118 -134 217
l-112 180 -183 162 -184 161 -62 319 c-34 175 -75 385 -91 467 -17 83 -35 152
-41 154 -7 2 -12 -2 -12 -8 0 -7 39 -208 86 -447 47 -239 84 -438 82 -442 -2
-4 -162 131 -356 302 -281 246 -350 312 -341 323 8 9 8 23 0 46 -9 30 -46 205
-226 1083 -35 171 -127 616 -205 990 -78 374 -162 782 -187 906 l-46 226 -141
39 -141 39 -117 114 c-65 63 -137 144 -161 180 -24 36 -98 183 -164 326 -122
263 -143 327 -143 440 l0 36 65 -7 65 -7 0 162 c0 147 2 161 18 161 34 0 113
-57 229 -165 168 -156 563 -509 574 -513 5 -2 10 23 10 55 1 32 4 70 8 84 l6
26 150 -70 c120 -56 194 -100 365 -219 l215 -149 105 5 c58 3 240 17 406 31
444 36 995 75 1072 75 l68 0 46 83 c25 45 94 175 152 288 l106 206 103 12 c56
7 111 15 123 17 17 4 35 -14 101 -103 72 -97 233 -337 262 -391 8 -15 91 -534
91 -569 0 0 24 -6 53 -13 28 -7 88 -29 132 -49 90 -42 140 -91 151 -147 6 -35
0 -117 -12 -135 -3 -5 -29 -9 -58 -9 l-52 0 -175 -142 -174 -143 -215 -5 -215
-5 -3 -27 -3 -28 169 0 c283 0 271 -3 404 106 107 88 283 194 322 194 8 0 34
-24 57 -52 39 -50 61 -66 57 -43 0 6 -16 33 -34 60 -30 45 -33 54 -24 85 16
57 12 160 -9 206 -30 67 -110 121 -248 169 -35 13 -67 25 -70 29 -5 5 -83 508
-79 513 1 2 210 21 644 59 166 15 306 24 309 20 7 -7 2 -35 -123 -599 l-95
-428 -70 -142 c-38 -78 -69 -149 -69 -157 0 -8 -12 -70 -26 -137 l-27 -122
-156 -194 c-86 -106 -244 -300 -351 -430 l-195 -236 -125 -243 -125 -243 -265
-27 c-146 -15 -284 -27 -307 -27 -76 -2 -409 156 -1398 661 l-239 123 -182
250 c-178 244 -213 280 -222 233 -4 -20 350 -513 383 -533 11 -8 285 -148 609
-313 l590 -300 2 -39 c6 -114 73 -591 125 -883 56 -316 60 -336 86 -359 l27
-23 -13 -247 c-6 -135 -14 -275 -16 -311 -3 -36 -12 -200 -20 -365 -8 -165
-18 -326 -21 -357 l-6 -58 1056 0 1056 0 0 128 c0 120 -1 130 -22 149 -13 12
-331 198 -708 413 -377 215 -686 395 -688 400 -16 44 -75 92 -297 242 -137 93
-253 173 -257 176 -20 19 -168 965 -154 980 3 2 61 -22 129 -52 l125 -57 348
36 c290 29 351 38 365 52 9 10 74 131 145 268 l128 250 206 250 c113 138 265
323 337 413 145 180 142 174 179 396 15 91 24 114 109 280 l93 181 97 475 c53
261 101 491 106 511 11 44 24 49 134 49 44 0 86 4 93 9 10 6 272 866 272 893
0 5 -74 8 -165 8 -152 0 -165 1 -165 18 0 10 20 211 45 447 24 237 54 531 66
655 l23 225 -39 100 -38 100 -6 195 c-4 107 -6 196 -6 198 1 1 24 -2 51 -8 78
-15 404 -34 414 -24 5 5 19 54 32 109 l24 100 -44 170 c-24 94 -57 217 -72
275 -29 107 -28 119 11 120 30 0 89 30 89 45 0 19 -190 235 -362 410 -132 135
-140 141 -221 174 l-84 33 -42 85 c-68 138 221 123 -2271 123 l-2145 0 -220
-250z m4149 -1507 c101 -62 110 -70 132 -119 51 -117 186 -630 204 -782 29
-236 35 -572 12 -609 -5 -7 -63 16 -162 64 l-155 74 -320 -76 c-176 -42 -336
-80 -355 -85 l-35 -10 -67 -187 c-37 -103 -66 -189 -64 -191 2 -1 95 13 207
32 112 20 355 60 539 91 184 30 350 57 368 60 26 5 32 3 32 -12 0 -10 -4 -24
-9 -32 -14 -22 -567 -101 -731 -105 -119 -2 -146 -6 -230 -34 -58 -19 -167
-41 -279 -58 l-185 -27 -440 17 c-274 11 -462 23 -496 31 -30 8 -64 15 -75 17
-27 6 144 15 500 29 165 7 302 13 304 15 9 7 -133 314 -145 314 -8 0 -80 7
-161 15 -82 8 -240 23 -353 34 -113 11 -283 28 -378 37 -165 16 -180 16 -310
-1 l-137 -19 -308 -132 c-170 -73 -311 -135 -314 -137 -4 -5 42 -186 50 -193
2 -3 96 10 208 27 154 23 224 29 284 25 44 -3 182 -8 308 -12 125 -4 226 -9
224 -10 -7 -7 -1179 -146 -1267 -150 -52 -3 -144 -1 -205 3 l-110 8 33 18 c17
10 32 25 32 35 0 10 17 54 39 98 26 55 45 115 60 194 13 63 40 205 62 315 21
109 39 224 40 255 0 30 3 73 7 94 7 38 8 35 37 -72 16 -62 32 -112 36 -112 3
0 26 66 51 148 45 141 47 156 63 367 9 121 20 238 25 260 l7 40 23 -52 c12
-29 25 -53 29 -53 8 0 133 349 127 358 -7 12 -28 203 -22 209 2 3 28 -3 56
-12 53 -18 103 -16 815 25 96 5 232 5 340 0 99 -5 245 -12 325 -15 130 -5 160
-10 287 -47 l141 -40 159 56 158 56 240 10 c132 6 247 12 255 14 8 2 98 4 200
5 l185 1 109 -67z m301 -1979 c-4 -41 -10 -88 -15 -103 -5 -18 6 -108 32 -265
22 -130 38 -239 36 -240 -8 -7 -962 -126 -967 -120 -3 3 -49 114 -103 247 -64
161 -94 246 -88 257 16 29 92 110 100 105 4 -2 10 -28 14 -57 4 -29 19 -79 33
-110 30 -67 9 -64 243 -45 l145 12 13 40 c14 40 11 161 -4 213 -6 21 -5 22 21
12 54 -20 191 -117 258 -182 37 -36 69 -62 72 -58 6 9 -103 113 -176 168 -30
23 -85 57 -122 76 l-67 35 37 7 c53 10 149 -42 229 -122 48 -49 64 -60 77 -52
9 5 17 14 17 20 0 21 -69 95 -126 134 -41 28 -52 40 -39 43 18 3 362 58 379
60 4 1 5 -33 1 -75z m488 50 c16 -3 26 -11 24 -18 -20 -51 -125 -403 -147
-491 l-27 -110 -39 -6 c-21 -4 -41 -5 -43 -3 -2 2 4 43 12 91 9 48 27 193 39
321 l22 234 65 -6 c36 -4 79 -9 94 -12z m-3153 -138 c0 -2 -21 -18 -47 -35
-84 -53 -261 -253 -251 -282 2 -6 22 15 45 47 47 67 151 184 163 184 4 0 5
-28 3 -63 -4 -51 -1 -73 18 -116 l23 -54 179 6 c110 4 184 10 191 17 21 21 20
160 -2 224 l-20 59 67 -7 c91 -10 136 -38 263 -167 59 -60 110 -109 113 -109
23 0 -144 178 -214 228 l-44 32 30 0 c33 0 101 -40 163 -96 l41 -37 20 20 20
20 -42 38 -42 38 64 -7 c146 -15 169 -19 169 -28 0 -6 -39 -144 -86 -307 -48
-163 -89 -306 -91 -318 -4 -16 -14 -24 -37 -27 -43 -7 -1448 -97 -1451 -94 -2
2 -26 80 -55 173 -50 167 -51 173 -61 359 -8 135 -7 191 0 196 6 3 134 21 284
39 149 18 292 35 317 39 l45 5 -51 -57 c-28 -31 -57 -68 -65 -82 -12 -23 -11
-27 6 -40 18 -14 22 -12 49 23 16 21 60 68 97 105 56 54 76 67 106 71 65 6 83
7 83 3z m1633 -23 c-15 -16 -42 -45 -59 -65 l-30 -38 -13 36 c-12 33 -11 36
15 57 36 28 53 35 88 36 l28 1 -29 -27z"/>
<path d="M2443 5863 c-18 -2 -34 -8 -34 -14 -6 -31 -3 -33 42 -30 33 2 61 -5
97 -22 59 -29 156 -109 141 -117 -9 -6 -68 -211 -69 -241 0 -12 146 -150 217
-204 10 -8 9 -26 -7 -94 -16 -67 -18 -86 -8 -93 22 -14 37 -9 43 15 3 12 14
57 24 100 l18 78 -113 101 c-63 55 -114 107 -114 114 0 33 33 144 43 144 6 0
89 -41 186 -91 97 -50 167 -82 156 -71 -54 52 -396 342 -435 368 -48 33 -123
65 -143 62 -6 0 -27 -3 -44 -5z"/>
<path d="M5720 4814 c-138 -9 -319 -26 -363 -36 -28 -6 -62 -22 -81 -38 -30
-27 -31 -31 -31 -107 1 -72 26 -177 54 -221 8 -14 263 -122 286 -122 12 0 25
21 25 40 0 5 -60 32 -134 61 l-133 52 -17 46 c-27 78 -37 151 -25 188 8 26 18
35 47 42 65 16 132 23 327 35 l190 11 0 25 c0 23 -4 25 -45 26 -25 0 -70 -1
-100 -2z"/>
<path d="M5075 4550 c-78 -43 -108 -69 -82 -71 18 -1 197 103 192 112 -9 14
-13 12 -110 -41z"/>
<path d="M5578 4442 c-26 -9 -49 -20 -52 -23 -3 -3 99 -47 228 -99 229 -91
235 -93 269 -79 19 8 36 18 37 23 2 12 -386 196 -413 195 -12 0 -43 -8 -69
-17z"/>
<path d="M4823 4012 c-56 -6 -103 -92 -50 -92 12 0 28 9 35 20 18 29 49 25
164 -21 57 -23 313 -124 570 -224 l466 -184 148 25 c82 13 152 24 156 24 10 0
220 175 355 296 103 91 148 116 187 101 18 -7 51 39 35 49 -20 12 -106 6 -137
-10 -17 -9 -60 -42 -94 -75 -75 -69 -321 -276 -352 -296 -11 -7 -82 -23 -156
-34 l-136 -22 -394 155 c-217 84 -462 181 -545 214 -170 68 -207 79 -252 74z"/>
<path d="M5951 3853 c-13 -60 -26 -123 -31 -141 -9 -35 -9 -35 38 -45 15 -3
22 0 22 9 0 8 -7 14 -15 14 -20 0 -19 13 10 142 14 60 22 114 19 119 -14 23
-23 1 -43 -98z"/>
<path d="M5512 3409 c5 -16 444 -179 481 -179 16 0 73 7 126 16 l96 17 78 70
c55 49 75 73 67 81 -7 7 -23 -2 -53 -30 -107 -100 -99 -96 -214 -115 l-108
-19 -226 85 c-229 86 -254 94 -247 74z"/>
<path d="M4955 1908 c-36 -106 -120 -424 -113 -427 5 -1 11 -1 14 1 5 6 124
413 124 427 0 15 -20 14 -25 -1z"/>
</g>
</svg>
